<svg id="Flat_final" height="512" viewBox="0 0 512 512" width="512" xmlns="http://www.w3.org/2000/svg" data-name="Flat final"><path d="m135.228 310a109.99 109.99 0 1 1 70.518 25.578 109.755 109.755 0 0 1 -70.518-25.578" fill="#f9ae00"/><g fill="#fdd83b"><path d="m205.746 77.478a10 10 0 0 1 -10-10v-37.632a10 10 0 0 1 20 0v37.632a10 10 0 0 1 -10 10z"/><path d="m126.7 98.662a10 10 0 0 1 -8.67-5l-18.817-32.591a10 10 0 0 1 17.32-10l18.817 32.59a10 10 0 0 1 -8.651 15z"/><path d="m68.806 156.536a9.959 9.959 0 0 1 -4.991-1.341l-32.589-18.816a10 10 0 1 1 10-17.32l32.589 18.816a10 10 0 0 1 -5.009 18.661z"/><path d="m47.632 235.592h-37.632a10 10 0 0 1 0-20h37.632a10 10 0 0 1 0 20z"/><path d="m36.235 333.467a10 10 0 0 1 -5.009-18.662l32.589-18.816a10 10 0 1 1 10 17.321l-32.589 18.815a9.947 9.947 0 0 1 -4.991 1.342z"/><path d="m342.688 156.536a10 10 0 0 1 -5.01-18.661l32.59-18.816a10 10 0 1 1 10 17.32l-32.59 18.821a9.953 9.953 0 0 1 -4.99 1.336z"/><path d="m284.794 98.662a10 10 0 0 1 -8.65-15l18.815-32.59a10 10 0 0 1 17.32 10l-18.815 32.59a10 10 0 0 1 -8.67 5z"/></g><path d="m438.935 338.585a85.6 85.6 0 0 0 -158.163-64.635 65.622 65.622 0 0 0 -95.433 39.313 85.985 85.985 0 1 0 -22.813 168.891h267.4a72.067 72.067 0 0 0 9.01-143.569z" fill="#80cdf6"/></svg>