<svg clip-rule="evenodd" fill-rule="evenodd" height="512" image-rendering="optimizeQuality" shape-rendering="geometricPrecision" text-rendering="geometricPrecision" viewBox="0 0 173.397 173.397" width="512" xmlns="http://www.w3.org/2000/svg"><g id="Layer_x0020_1"><g id="_312709520"><path id="_312710384" d="m52.4477 52.3318 23.9525-3.6157 5.1046-15.4017c-1.8363-1.4842-4.173-2.3736-6.718-2.3736-.5873 0-1.1633.0482-1.7248.1392 1.0334-6.4771-3.9522-12.3925-10.561-12.3925-2.1151 0-4.0866.6142-5.7464 1.6736-1.7697-5.5244-6.9465-9.5239-13.0584-9.5239-10.4085 0-16.882 11.1085-12.1305 20.104-5.8907.0192-10.6601 4.7999-10.6601 10.6951 0 5.9069 4.7885 10.6955 10.6954 10.6955z" fill="#17ace8"/><path id="_312710432" d="m85.7433 99.8789-43.8451-2.337c-6.0584-3.2856-10.1722-9.7009-10.1722-17.0771 0-9.8608 7.3516-18.0035 16.8724-19.2487 1.4441-9.2955 9.4824-16.4104 19.1828-16.4104 2.4622 0 4.8167.4596 6.9842 1.2957 1.5813-10.5991 10.7211-18.7289 21.7602-18.7289 12.1519 0 22.003 9.8511 22.003 22.0031 0 2.5462-.4338 4.991-1.2296 7.2656 1.8416-.4999 3.7786-.7684 5.7787-.7684 12.1517 0 22.0029 9.8512 22.0029 22.0032 0 12.1516-9.8512 22.0029-22.0029 22.0029z" fill="#49d1ed"/><g fill="#e7dbd7"><path id="_312710408" d="m45.337 96.7096h34.2599c4.1601 0 7.5639 3.4038 7.5639 7.5639 0 .7546-.1127 1.5041-.3361 2.2247h7.8999c4.1601 0 7.5639 3.4038 7.5639 7.564 0 4.1601-3.4038 7.5639-7.5639 7.5639h-34.2599c-4.1601 0-7.5639-3.4038-7.5639-7.5639 0-.7546.1127-1.5041.3361-2.2247h-7.8999c-4.1602 0-7.5639-3.4038-7.5639-7.564 0-4.1601 3.4037-7.5639 7.5639-7.5639z"/><path id="_312710528" d="m113.52 121.038h23.4441c2.8468 0 5.176 2.3292 5.176 5.176 0 .5164-.0771 1.0292-.23 1.5224h5.4059c2.8468 0 5.176 2.3292 5.176 5.176s-2.3292 5.176-5.176 5.176h-23.444c-2.8468 0-5.176-2.3292-5.176-5.176 0-.5163.0771-1.0292.23-1.5224h-5.406c-2.8468 0-5.176-2.3292-5.176-5.176s2.3292-5.176 5.176-5.176z"/><path id="_312709328" d="m51.4084 146.097h22.6358c2.7486 0 4.9975 2.2489 4.9975 4.9976 0 .4985-.0744.9937-.2221 1.4699h5.2196c2.7486 0 4.9975 2.2488 4.9975 4.9975s-2.2489 4.9975-4.9975 4.9975h-22.6358c-2.7487 0-4.9976-2.2488-4.9976-4.9975 0-.4985.0745-.9937.2221-1.4699h-5.2195c-2.7487 0-4.9976-2.2489-4.9976-4.9975 0-2.7487 2.2489-4.9976 4.9976-4.9976z"/><rect id="_312709544" height="10.456" rx="5.228" width="44.506" x="106.176" y="152.104"/><rect id="_312709400" height="8.676" rx="4.338" width="36.93" x="24.315" y="129.412"/><rect id="_312709904" height="8.676" rx="4.338" width="26.474" x="76.484" y="129.412"/></g></g></g></svg>