<svg id="Layer_1" enable-background="new 0 0 512 512" viewBox="0 0 512 512" xmlns="http://www.w3.org/2000/svg"><g clip-rule="evenodd" fill-rule="evenodd"><path d="m345.515 44.758c0 5.523-4.477 10-10 10s-10-4.477-10-10v-28.758c0-5.523 4.477-10 10-10s10 4.477 10 10z" fill="#ffb632"/><path d="m430.711 88.331c-3.905 3.905-10.236 3.905-14.14 0-3.905-3.905-3.905-10.236 0-14.14l20.335-20.335c3.905-3.905 10.236-3.905 14.14 0 3.905 3.905 3.905 10.236 0 14.14z" fill="#ffb632"/><path d="m460.144 179.387c-5.523 0-10-4.477-10-10s4.477-10 10-10h28.758c5.523 0 10 4.477 10 10s-4.477 10-10 10z" fill="#ffb632"/><path d="m335.515 78.045c50.447 0 91.342 40.895 91.342 91.342 0 32.849-17.344 61.643-43.37 77.738-6.069-4.736-13.033-8.38-20.597-10.631.047-.992.073-1.99.073-2.994 0-34.564-28.02-62.584-62.584-62.584-2.919 0-5.789.204-8.601.591-7.929-18.139-20.94-33.548-37.232-44.428 15.261-29.143 45.79-49.034 80.969-49.034z" fill="#ffd33a"/><path d="m84.623 216.019c3.457 0 6.856.251 10.182.725-.053-1.359-.088-2.723-.088-4.095 0-56.784 46.032-102.816 102.816-102.816 42.154 0 78.377 25.373 94.247 61.676 2.812-.387 5.683-.591 8.601-.591 34.564 0 62.584 28.02 62.584 62.584 0 1.004-.026 2.002-.073 2.994 25.853 7.692 44.709 31.637 44.709 59.989 0 34.564-28.02 62.584-62.584 62.584h-260.394c-39.502 0-71.524-32.022-71.524-71.524-.001-39.503 32.022-71.526 71.524-71.526z" fill="#d0d2d4"/><g fill="#7e8589"><path d="m49.176 431.048c-5.523 0-10-4.477-10-10s4.477-10 10-10h59.736c5.523 0 10 4.477 10 10s-4.477 10-10 10z"/><path d="m180.481 431.048c-5.523 0-10-4.477-10-10s4.477-10 10-10h59.736c5.523 0 10 4.477 10 10s-4.477 10-10 10z"/><path d="m311.786 431.048c-5.523 0-10-4.477-10-10s4.477-10 10-10h59.736c5.523 0 10 4.477 10 10s-4.477 10-10 10z"/><path d="m114.829 506c-5.523 0-10-4.477-10-10s4.477-10 10-10h59.736c5.523 0 10 4.477 10 10s-4.477 10-10 10z"/><path d="m246.134 506c-5.523 0-10-4.477-10-10s4.477-10 10-10h59.736c5.523 0 10 4.477 10 10s-4.477 10-10 10z"/></g></g></svg>