<svg id="Layer_1" height="512" viewBox="0 0 64 64" width="512" xmlns="http://www.w3.org/2000/svg" data-name="Layer 1"><path d="m13 30.11 5.61-5.61h-3.61v-11.5h-4v11.5h-3.61z" fill="#81d4fa"/><path d="m27 30.11 5.61-5.61h-3.61v-11.5h-4v11.5h-3.61z" fill="#81d4fa"/><path d="m12 35h29a6 6 0 1 0 -6-6v1a1 1 0 0 0 2 0v-1a4 4 0 1 1 4 4h-29a1 1 0 0 0 0 2z"/><path d="m55 37h-34a1 1 0 0 0 0 2h34a4 4 0 1 1 -4 4v-1a1 1 0 0 0 -2 0v1a6 6 0 1 0 6-6z"/><path d="m4 35h4a1 1 0 0 0 0-2h-4a1 1 0 0 0 0 2z"/><path d="m4 39h7a1 1 0 0 0 0-2h-7a1 1 0 0 0 0 2z"/><path d="m18 38a1 1 0 0 0 -1-1h-2a1 1 0 0 0 0 2h2a1 1 0 0 0 1-1z"/><path d="m13 41h-9a1 1 0 0 0 0 2h9a1 1 0 0 0 0-2z"/><path d="m36 41h-1a1 1 0 0 0 0 2h1a1 1 0 0 0 0-2z"/><path d="m31 41h-9a1 1 0 0 0 0 2h9a1 1 0 0 0 0-2z"/><path d="m18 41h-1a1 1 0 0 0 0 2h1a1 1 0 0 0 0-2z"/><path d="m13 31.11a1 1 0 0 1 -.71-.29l-5.61-5.61a1 1 0 0 1 .71-1.71h2.61v-10.5a1 1 0 0 1 1-1h4a1 1 0 0 1 1 1v10.5h2.61a1 1 0 0 1 .71 1.71l-5.61 5.61a1 1 0 0 1 -.71.29zm-3.2-5.61 3.2 3.2 3.2-3.2h-1.2a1 1 0 0 1 -1-1v-10.5h-2v10.5a1 1 0 0 1 -1 1z"/><path d="m27 31.11a1 1 0 0 1 -.71-.29l-5.61-5.61a1 1 0 0 1 .71-1.71h2.61v-10.5a1 1 0 0 1 1-1h4a1 1 0 0 1 1 1v10.5h2.61a1 1 0 0 1 .71 1.71l-5.61 5.61a1 1 0 0 1 -.71.29zm-3.2-5.61 3.2 3.2 3.2-3.2h-1.2a1 1 0 0 1 -1-1v-10.5h-2v10.5a1 1 0 0 1 -1 1z"/></svg>