<svg id="_46_Weather_Forecast" enable-background="new 0 0 512 512" viewBox="0 0 512 512" xmlns="http://www.w3.org/2000/svg" xmlns:xlink="http://www.w3.org/1999/xlink"><linearGradient id="lg1"><stop offset="0" stop-color="#fef48b"/><stop offset=".1646" stop-color="#fdf286"/><stop offset=".3352" stop-color="#fdee7a"/><stop offset=".5086" stop-color="#fce765"/><stop offset=".6839" stop-color="#fcde48"/><stop offset=".8589" stop-color="#fbd123"/><stop offset="1" stop-color="#fac600"/></linearGradient><linearGradient id="SVGID_1_" gradientTransform="matrix(1 0 0 -1 -2458.347 1615.507)" gradientUnits="userSpaceOnUse" x1="2789.355" x2="2804.241" xlink:href="#lg1" y1="1593.764" y2="1593.764"/><linearGradient id="SVGID_00000061432023676543246360000006087786569862228661_" gradientTransform="matrix(1 0 0 -1 -2458.347 1615.507)" gradientUnits="userSpaceOnUse" x1="2789.355" x2="2804.241" xlink:href="#lg1" y1="1291.661" y2="1291.661"/><linearGradient id="SVGID_00000032616954585985476700000012559875297626971275_" gradientTransform="matrix(0 1 1 0 -1256.069 -2691.249)" gradientUnits="userSpaceOnUse" x1="2855.845" x2="2870.731" xlink:href="#lg1" y1="1746.326" y2="1746.326"/><linearGradient id="SVGID_00000035497656420569897050000013702174725732078991_" gradientTransform="matrix(0 1 1 0 -1256.069 -2691.249)" gradientUnits="userSpaceOnUse" x1="2855.845" x2="2870.731" xlink:href="#lg1" y1="1444.224" y2="1444.224"/><linearGradient id="SVGID_00000177457012196075212870000006170620731644616854_" gradientTransform="matrix(1 0 0 -1 0 514)" gradientUnits="userSpaceOnUse" x1="242.269" x2="227.231" xlink:href="#lg1" y1="457.888" y2="442.85"/><linearGradient id="SVGID_00000070840009551509696150000004214994158507048850_" gradientTransform="matrix(1 0 0 -1 0 514)" gradientUnits="userSpaceOnUse" x1="455.888" x2="440.85" xlink:href="#lg1" y1="244.269" y2="229.231"/><linearGradient id="SVGID_00000105403135441786700420000008354481496981391769_" gradientTransform="matrix(.707 .707 .707 -.707 -2749.167 -786.871)" gradientUnits="userSpaceOnUse" x1="2854.197" x2="2869.082" xlink:href="#lg1" y1="1656.275" y2="1656.275"/><linearGradient id="SVGID_00000083770294615071847280000008007460526746219441_" gradientTransform="matrix(.707 .707 .707 -.707 -2749.167 -786.871)" gradientUnits="userSpaceOnUse" x1="2854.197" x2="2869.082" xlink:href="#lg1" y1="1354.172" y2="1354.172"/><linearGradient id="SVGID_00000175318861957841004220000013542076220418589601_" gradientTransform="matrix(1 0 0 -1 0 514)" gradientUnits="userSpaceOnUse" x1="271.777" x2="411.165" xlink:href="#lg1" y1="408.635" y2="269.247"/><linearGradient id="lg2"><stop offset="0" stop-color="#fe9738" stop-opacity="0"/><stop offset=".1207" stop-color="#fe9738" stop-opacity=".016"/><stop offset=".2459" stop-color="#fe9738" stop-opacity=".065"/><stop offset=".3731" stop-color="#fe9738" stop-opacity=".147"/><stop offset=".5018" stop-color="#fe9738" stop-opacity=".262"/><stop offset=".6317" stop-color="#fe9738" stop-opacity=".41"/><stop offset=".7625" stop-color="#fe9738" stop-opacity=".59"/><stop offset=".8916" stop-color="#fe9738" stop-opacity=".8"/><stop offset="1" stop-color="#fe9738"/></linearGradient><linearGradient id="SVGID_00000183946310643997087000000007505333927682467457_" gradientTransform="matrix(1 0 0 -1 0 514)" gradientUnits="userSpaceOnUse" x1="339.206" x2="339.206" xlink:href="#lg2" y1="337.158" y2="227.204"/><linearGradient id="SVGID_00000001635174754987927930000002837549318999565975_" gradientTransform="matrix(1 0 0 -1 0 514)" gradientUnits="userSpaceOnUse" x1="332.13" x2="453.022" xlink:href="#lg2" y1="343.802" y2="303.505"/><linearGradient id="SVGID_00000096764804931188992220000017194764878932821930_" gradientTransform="matrix(1 0 0 -1 0 514)" gradientUnits="userSpaceOnUse" x1="148.417" x2="225.408" y1="371.292" y2="121.074"><stop offset="0" stop-color="#faf7f7"/><stop offset=".3084" stop-color="#f7f3f2"/><stop offset=".6279" stop-color="#efe8e6"/><stop offset=".9515" stop-color="#e3d6d1"/><stop offset="1" stop-color="#e1d3ce"/></linearGradient><linearGradient id="lg3"><stop offset="0" stop-color="#cdbfba" stop-opacity="0"/><stop offset=".1541" stop-color="#cbbdb9" stop-opacity=".026"/><stop offset=".3138" stop-color="#c8bab6" stop-opacity=".105"/><stop offset=".4761" stop-color="#c1b5b1" stop-opacity=".236"/><stop offset=".6403" stop-color="#b9aeab" stop-opacity=".42"/><stop offset=".8058" stop-color="#aea4a2" stop-opacity=".657"/><stop offset=".9703" stop-color="#a09998" stop-opacity=".943"/><stop offset="1" stop-color="#9e9797"/></linearGradient><linearGradient id="SVGID_00000170975619324167369830000008325972981920878269_" gradientTransform="matrix(1 0 0 -1 0 514)" gradientUnits="userSpaceOnUse" x1="195.195" x2="195.195" xlink:href="#lg3" y1="198.969" y2="154.058"/><linearGradient id="SVGID_00000093163436233835836840000007374472605965949869_" gradientTransform="matrix(1 0 0 -1 0 514)" gradientUnits="userSpaceOnUse" x1="336.972" x2="394.71" xlink:href="#lg3" y1="214.122" y2="214.122"/><linearGradient id="SVGID_00000180348291956914539210000000484521422117719991_" gradientTransform="matrix(1 0 0 -1 0 514)" gradientUnits="userSpaceOnUse" x1="300.142" x2="358.597" xlink:href="#lg3" y1="292.519" y2="300.361"/><linearGradient id="SVGID_00000042719355144744676260000010223797154441019782_" gradientTransform="matrix(1 0 0 -1 0 514)" gradientUnits="userSpaceOnUse" x1="94.899" x2="112.721" xlink:href="#lg3" y1="327.38" y2="367.301"/><linearGradient id="SVGID_00000130630091947897536930000016558830583076375478_" gradientTransform="matrix(1 0 0 -1 0 514)" gradientUnits="userSpaceOnUse" x1="62.877" x2="80.461" y1="223.31" y2="287.944"><stop offset="0" stop-color="#fff" stop-opacity="0"/><stop offset=".1205" stop-color="#fff" stop-opacity=".016"/><stop offset=".2454" stop-color="#fff" stop-opacity=".065"/><stop offset=".3724" stop-color="#fff" stop-opacity=".147"/><stop offset=".5008" stop-color="#fff" stop-opacity=".261"/><stop offset=".6304" stop-color="#fff" stop-opacity=".408"/><stop offset=".761" stop-color="#fff" stop-opacity=".588"/><stop offset=".8898" stop-color="#fff" stop-opacity=".797"/><stop offset="1" stop-color="#fff"/></linearGradient><linearGradient id="lg4"><stop offset="0" stop-color="#99e6fc"/><stop offset=".1883" stop-color="#94e5fa"/><stop offset=".3834" stop-color="#88e2f7"/><stop offset=".5817" stop-color="#73def2"/><stop offset=".7822" stop-color="#56d8eb"/><stop offset=".9825" stop-color="#31d1e2"/><stop offset="1" stop-color="#2ed1e2"/></linearGradient><linearGradient id="SVGID_00000046339746498951789980000002083339991987442353_" gradientTransform="matrix(.707 .707 .707 -.707 -2632.229 -766.968)" gradientUnits="userSpaceOnUse" x1="2695.069" x2="2709.954" xlink:href="#lg4" y1="1083.582" y2="1083.582"/><linearGradient id="SVGID_00000055692553240492428330000008230372467992096141_" gradientTransform="matrix(.707 .707 .707 -.707 -2632.229 -766.968)" gradientUnits="userSpaceOnUse" x1="2749.913" x2="2764.798" xlink:href="#lg4" y1="1138.427" y2="1138.427"/><linearGradient id="SVGID_00000121974124798871860490000008309162720885240972_" gradientTransform="matrix(.707 .707 .707 -.707 -2632.229 -766.968)" gradientUnits="userSpaceOnUse" x1="2804.758" x2="2819.643" xlink:href="#lg4" y1="1193.272" y2="1193.272"/><linearGradient id="SVGID_00000141447148670018365220000014551966738023361698_" gradientTransform="matrix(.707 .707 .707 -.707 -2632.229 -766.968)" gradientUnits="userSpaceOnUse" x1="2859.603" x2="2874.488" xlink:href="#lg4" y1="1248.116" y2="1248.116"/><linearGradient id="SVGID_00000152963419359294841140000012952121271531115931_" gradientTransform="matrix(.707 .707 .707 -.707 -2632.229 -766.968)" gradientUnits="userSpaceOnUse" x1="2914.447" x2="2929.332" xlink:href="#lg4" y1="1302.961" y2="1302.961"/><linearGradient id="SVGID_00000047052109653714151260000006493354969728778160_" gradientTransform="matrix(.707 .707 .707 -.707 -2632.229 -766.968)" gradientUnits="userSpaceOnUse" x1="2763.321" x2="2778.206" xlink:href="#lg4" y1="1070.174" y2="1070.174"/><linearGradient id="SVGID_00000143603916803827668740000003625251586580641687_" gradientTransform="matrix(.707 .707 .707 -.707 -2632.229 -766.968)" gradientUnits="userSpaceOnUse" x1="2818.166" x2="2833.051" xlink:href="#lg4" y1="1125.019" y2="1125.019"/><linearGradient id="SVGID_00000178907720696587909670000011349434196271810473_" gradientTransform="matrix(.707 .707 .707 -.707 -2632.229 -766.968)" gradientUnits="userSpaceOnUse" x1="2873.01" x2="2887.896" xlink:href="#lg4" y1="1179.864" y2="1179.864"/><linearGradient id="SVGID_00000151526692475533030500000011486050110446659243_" gradientTransform="matrix(.707 .707 .707 -.707 -2632.229 -766.968)" gradientUnits="userSpaceOnUse" x1="2927.855" x2="2942.74" xlink:href="#lg4" y1="1234.708" y2="1234.708"/><linearGradient id="SVGID_00000026843894940980721200000003456475435812579513_" gradientTransform="matrix(.707 .707 .707 -.707 -2632.229 -766.968)" gradientUnits="userSpaceOnUse" x1="2776.729" x2="2791.614" xlink:href="#lg4" y1="1001.922" y2="1001.922"/><linearGradient id="SVGID_00000181066409909213075080000015679098275963876487_" gradientTransform="matrix(.707 .707 .707 -.707 -2632.229 -766.968)" gradientUnits="userSpaceOnUse" x1="2831.574" x2="2846.459" xlink:href="#lg4" y1="1056.767" y2="1056.767"/><linearGradient id="SVGID_00000014618970636809910700000012921471895390742173_" gradientTransform="matrix(.707 .707 .707 -.707 -2632.229 -766.968)" gradientUnits="userSpaceOnUse" x1="2886.418" x2="2901.304" xlink:href="#lg4" y1="1111.611" y2="1111.611"/><linearGradient id="SVGID_00000002345106668058013700000014434776564702099082_" gradientTransform="matrix(.707 .707 .707 -.707 -2632.229 -766.968)" gradientUnits="userSpaceOnUse" x1="2941.263" x2="2956.148" xlink:href="#lg4" y1="1166.456" y2="1166.456"/><linearGradient id="SVGID_00000084504002622629588190000004498974982507157636_" gradientTransform="matrix(.707 .707 .707 -.707 -2632.229 -766.968)" gradientUnits="userSpaceOnUse" x1="2996.107" x2="3010.993" xlink:href="#lg4" y1="1221.3" y2="1221.3"/><g><g><g><g><g><path d="m339.2 0c-5.3 0-9.6 4.3-9.6 9.6v24.2c0 5.3 4.3 9.6 9.6 9.6s9.6-4.3 9.6-9.6v-24.2c0-5.3-4.3-9.6-9.6-9.6z" fill="url(#SVGID_1_)"/><path d="m339.2 302.1c-5.3 0-9.6 4.3-9.6 9.6v24.2c0 5.3 4.3 9.6 9.6 9.6s9.6-4.3 9.6-9.6v-24.2c0-5.3-4.3-9.6-9.6-9.6z" fill="url(#SVGID_00000061432023676543246360000006087786569862228661_)"/></g><g><path d="m512 172.8c0-5.3-4.3-9.6-9.6-9.6h-24.2c-5.3 0-9.6 4.3-9.6 9.6s4.3 9.6 9.6 9.6h24.2c5.3 0 9.6-4.3 9.6-9.6z" fill="url(#SVGID_00000032616954585985476700000012559875297626971275_)"/><path d="m209.9 172.8c0-5.3-4.3-9.6-9.6-9.6h-24.2c-5.3 0-9.6 4.3-9.6 9.6s4.3 9.6 9.6 9.6h24.2c5.3 0 9.6-4.3 9.6-9.6z" fill="url(#SVGID_00000035497656420569897050000013702174725732078991_)"/></g><g><path d="m217 50.6c-3.8 3.8-3.8 9.9 0 13.6l17.1 17.1c3.8 3.8 9.9 3.8 13.6 0s3.8-9.9 0-13.6l-17.1-17.1c-3.7-3.7-9.8-3.7-13.6 0z" fill="url(#SVGID_00000177457012196075212870000006170620731644616854_)"/><path d="m430.6 264.2c-3.8 3.8-3.8 9.9 0 13.6l17.1 17.1c3.8 3.8 9.9 3.8 13.6 0 3.8-3.8 3.8-9.9 0-13.6l-17.1-17.1c-3.7-3.7-9.8-3.7-13.6 0z" fill="url(#SVGID_00000070840009551509696150000004214994158507048850_)"/></g><g><path d="m461.4 50.6c-3.8-3.8-9.9-3.8-13.6 0l-17.1 17.1c-3.8 3.8-3.8 9.9 0 13.6s9.9 3.8 13.6 0l17.1-17.1c3.7-3.7 3.7-9.8 0-13.6z" fill="url(#SVGID_00000105403135441786700420000008354481496981391769_)"/><path d="m247.8 264.2c-3.8-3.8-9.9-3.8-13.6 0l-17.2 17.2c-3.8 3.8-3.8 9.9 0 13.6 3.8 3.8 9.9 3.8 13.6 0l17.1-17.1c3.8-3.8 3.8-9.9.1-13.7z" fill="url(#SVGID_00000083770294615071847280000008007460526746219441_)"/></g></g><g><circle cx="339.2" cy="172.8" fill="url(#SVGID_00000175318861957841004220000013542076220418589601_)" r="112.2"/><path d="m227 172.8c0 62 50.2 112.2 112.2 112.2s112.2-50.2 112.2-112.2c0-8.3-.9-16.4-2.7-24.2h-219c-1.8 7.8-2.7 15.9-2.7 24.2z" fill="url(#SVGID_00000183946310643997087000000007505333927682467457_)"/><path d="m339.2 60.6c-9 0-17.8 1.1-26.2 3.1v218.2c8.4 2 17.2 3.1 26.2 3.1 62 0 112.2-50.2 112.2-112.2s-50.2-112.2-112.2-112.2z" fill="url(#SVGID_00000001635174754987927930000002837549318999565975_)"/></g></g><g><path d="m344 248.6c.8-5.6 1.2-11.3 1.2-17 0-66.2-53.7-119.9-119.9-119.9-43.2 0-81.1 22.9-102.2 57.2-8.4-5.8-18.5-9.3-29.5-9.3-28.5 0-51.6 23.1-51.6 51.6 0 5.6.9 10.9 2.5 15.9-25.8 8.1-44.5 32.2-44.5 60.7 0 35.2 28.5 63.7 63.7 63.7h275.2c28.5 0 51.6-23.1 51.6-51.6-.1-26.8-20.5-48.8-46.5-51.3z" fill="url(#SVGID_00000096764804931188992220000017194764878932821930_)"/><path d="m390.4 299.9c0 28.5-23.1 51.6-51.6 51.6h-275.1c-35.2-.1-63.7-28.6-63.7-63.7 0-6.5 1-12.9 2.8-18.8h377.3c6.5 8.6 10.3 19.3 10.3 30.9z" fill="url(#SVGID_00000170975619324167369830000008325972981920878269_)"/><circle cx="338.8" cy="299.9" fill="url(#SVGID_00000093163436233835836840000007374472605965949869_)" r="51.6"/><path d="m345.2 231.5c0 5.8-.4 11.5-1.2 17.1-1.7-.2-3.4-.3-5.1-.3-28.5 0-51.6 23.1-51.6 51.6 0 10.6 3.2 20.4 8.6 28.6-19.8 14.5-44.2 23-70.6 23-66.2 0-119.9-53.7-119.9-119.9s53.7-119.9 119.9-119.9c66.2-.1 119.9 53.6 119.9 119.8z" fill="url(#SVGID_00000180348291956914539210000000484521422117719991_)"/><path d="m105.3 231.5c0 9.9 1.2 19.6 3.5 28.9-4.8 1.5-10 2.3-15.3 2.3-28.5 0-51.6-23.1-51.6-51.6s23.1-51.6 51.6-51.6c11 0 21.1 3.4 29.5 9.2-11.2 18.4-17.7 39.8-17.7 62.8z" fill="url(#SVGID_00000042719355144744676260000010223797154441019782_)"/><circle cx="63.7" cy="287.8" fill="url(#SVGID_00000130630091947897536930000016558830583076375478_)" r="63.7"/></g></g><g><g><path d="m60.9 362.9c-3.8-3.8-9.9-3.8-13.6 0l-17.1 17.1c-3.8 3.8-3.8 9.9 0 13.6 3.8 3.8 9.9 3.8 13.6 0l17.1-17.1c3.7-3.7 3.7-9.8 0-13.6z" fill="url(#SVGID_00000046339746498951789980000002083339991987442353_)"/><path d="m138.4 362.9c-3.8-3.8-9.9-3.8-13.6 0l-17.1 17.1c-3.8 3.8-3.8 9.9 0 13.6 3.8 3.8 9.9 3.8 13.6 0l17.1-17.1c3.8-3.7 3.8-9.8 0-13.6z" fill="url(#SVGID_00000055692553240492428330000008230372467992096141_)"/><path d="m216 362.9c-3.8-3.8-9.9-3.8-13.6 0l-17.1 17.1c-3.8 3.8-3.8 9.9 0 13.6 3.8 3.8 9.9 3.8 13.6 0l17.1-17.1c3.7-3.7 3.7-9.8 0-13.6z" fill="url(#SVGID_00000121974124798871860490000008309162720885240972_)"/><path d="m293.5 362.9c-3.8-3.8-9.9-3.8-13.6 0l-17.1 17.1c-3.8 3.8-3.8 9.9 0 13.6 3.8 3.8 9.9 3.8 13.6 0l17.1-17.1c3.8-3.7 3.8-9.8 0-13.6z" fill="url(#SVGID_00000141447148670018365220000014551966738023361698_)"/><path d="m371.1 362.9c-3.8-3.8-9.9-3.8-13.6 0l-17.1 17.1c-3.8 3.8-3.8 9.9 0 13.6 3.8 3.8 9.9 3.8 13.6 0l17.1-17.1c3.8-3.7 3.8-9.8 0-13.6z" fill="url(#SVGID_00000152963419359294841140000012952121271531115931_)"/></g><g><path d="m99.6 420.7c-3.8-3.8-9.9-3.8-13.6 0l-17.1 17.1c-3.8 3.8-3.8 9.9 0 13.6 3.8 3.8 9.9 3.8 13.6 0l17.1-17.1c3.8-3.8 3.8-9.9 0-13.6z" fill="url(#SVGID_00000047052109653714151260000006493354969728778160_)"/><path d="m177.2 420.7c-3.8-3.8-9.9-3.8-13.6 0l-17.1 17.1c-3.8 3.8-3.8 9.9 0 13.6 3.8 3.8 9.9 3.8 13.6 0l17.1-17.1c3.8-3.8 3.8-9.9 0-13.6z" fill="url(#SVGID_00000143603916803827668740000003625251586580641687_)"/><path d="m254.8 420.7c-3.8-3.8-9.9-3.8-13.6 0l-17.2 17.1c-3.8 3.8-3.8 9.9 0 13.6 3.8 3.8 9.9 3.8 13.6 0l17.1-17.1c3.8-3.8 3.8-9.9.1-13.6z" fill="url(#SVGID_00000178907720696587909670000011349434196271810473_)"/><path d="m332.3 420.7c-3.8-3.8-9.9-3.8-13.6 0l-17.1 17.1c-3.8 3.8-3.8 9.9 0 13.6 3.8 3.8 9.9 3.8 13.6 0l17.1-17.1c3.8-3.8 3.8-9.9 0-13.6z" fill="url(#SVGID_00000151526692475533030500000011486050110446659243_)"/></g><g><path d="m60.9 478.4c-3.8-3.8-9.9-3.8-13.6 0l-17.1 17.1c-3.8 3.8-3.8 9.9 0 13.6 3.8 3.8 9.9 3.8 13.6 0l17.1-17.1c3.7-3.7 3.7-9.8 0-13.6z" fill="url(#SVGID_00000026843894940980721200000003456475435812579513_)"/><path d="m138.4 478.4c-3.8-3.8-9.9-3.8-13.6 0l-17.1 17.1c-3.8 3.8-3.8 9.9 0 13.6 3.8 3.8 9.9 3.8 13.6 0l17.1-17.1c3.8-3.7 3.8-9.8 0-13.6z" fill="url(#SVGID_00000181066409909213075080000015679098275963876487_)"/><path d="m216 478.4c-3.8-3.8-9.9-3.8-13.6 0l-17.1 17.1c-3.8 3.8-3.8 9.9 0 13.6 3.8 3.8 9.9 3.8 13.6 0l17.1-17.1c3.7-3.7 3.7-9.8 0-13.6z" fill="url(#SVGID_00000014618970636809910700000012921471895390742173_)"/><path d="m293.5 478.4c-3.8-3.8-9.9-3.8-13.6 0l-17.1 17.1c-3.8 3.8-3.8 9.9 0 13.6 3.8 3.8 9.9 3.8 13.6 0l17.1-17.1c3.8-3.7 3.8-9.8 0-13.6z" fill="url(#SVGID_00000002345106668058013700000014434776564702099082_)"/><path d="m371.1 478.4c-3.8-3.8-9.9-3.8-13.6 0l-17.1 17.1c-3.8 3.8-3.8 9.9 0 13.6 3.8 3.8 9.9 3.8 13.6 0l17.1-17.1c3.8-3.7 3.8-9.8 0-13.6z" fill="url(#SVGID_00000084504002622629588190000004498974982507157636_)"/></g></g></g></svg>