<svg id="_04_Spring_Weaher" enable-background="new 0 0 512 512" viewBox="0 0 512 512" xmlns="http://www.w3.org/2000/svg" xmlns:xlink="http://www.w3.org/1999/xlink"><linearGradient id="lg1"><stop offset="0" stop-color="#f5fbff"/><stop offset=".2414" stop-color="#f0f8fe"/><stop offset=".4916" stop-color="#e4f2fe"/><stop offset=".7457" stop-color="#cfe8fe"/><stop offset="1" stop-color="#b3dafe"/></linearGradient><linearGradient id="SVGID_1_" gradientTransform="matrix(1 0 0 -1 0 514)" gradientUnits="userSpaceOnUse" x1="363.848" x2="286.858" xlink:href="#lg1" y1="375.934" y2="152.449"/><linearGradient id="lg2"><stop offset="0" stop-color="#fef48b" stop-opacity="0"/><stop offset=".1205" stop-color="#fef48b" stop-opacity=".016"/><stop offset=".2454" stop-color="#fef48e" stop-opacity=".065"/><stop offset=".3724" stop-color="#fef493" stop-opacity=".147"/><stop offset=".5008" stop-color="#fef49a" stop-opacity=".261"/><stop offset=".6304" stop-color="#fef4a3" stop-opacity=".408"/><stop offset=".761" stop-color="#fef4ad" stop-opacity=".588"/><stop offset=".8898" stop-color="#fef4ba" stop-opacity=".797"/><stop offset="1" stop-color="#fff5c6"/></linearGradient><linearGradient id="SVGID_00000162314585023830161790000002622142747297246081_" gradientTransform="matrix(1 0 0 -1 0 514)" gradientUnits="userSpaceOnUse" x1="432.482" x2="231.452" xlink:href="#lg2" y1="269.152" y2="219.251"/><linearGradient id="lg3"><stop offset="0" stop-color="#8ac9fe" stop-opacity="0"/><stop offset=".1291" stop-color="#89c8fd" stop-opacity=".019"/><stop offset=".2629" stop-color="#88c6fb" stop-opacity=".075"/><stop offset=".3989" stop-color="#87c4f8" stop-opacity=".168"/><stop offset=".5365" stop-color="#85c0f4" stop-opacity=".298"/><stop offset=".6753" stop-color="#83bbef" stop-opacity=".466"/><stop offset=".8151" stop-color="#7fb5e9" stop-opacity=".672"/><stop offset=".9532" stop-color="#7caee1" stop-opacity=".911"/><stop offset="1" stop-color="#7bacdf"/></linearGradient><linearGradient id="SVGID_00000021108932515226321820000017196649857872931726_" gradientTransform="matrix(1 0 0 -1 0 514)" gradientUnits="userSpaceOnUse" x1="308.995" x2="308.995" xlink:href="#lg3" y1="172.161" y2="112.551"/><linearGradient id="SVGID_00000022522346775011726590000002954945538777731769_" gradientTransform="matrix(1 0 0 -1 0 514)" gradientUnits="userSpaceOnUse" x1="448.48" x2="522.93" xlink:href="#lg3" y1="202.191" y2="202.191"/><linearGradient id="SVGID_00000154423514714517962900000016817419382617585827_" gradientTransform="matrix(1 0 0 -1 0 514)" gradientUnits="userSpaceOnUse" x1="419.447" x2="480.043" xlink:href="#lg3" y1="312.381" y2="311.388"/><linearGradient id="SVGID_00000066488334737043616300000016223744670527919253_" gradientTransform="matrix(1 0 0 -1 0 514)" gradientUnits="userSpaceOnUse" x1="349.633" x2="391.355" xlink:href="#lg3" y1="342.615" y2="378.376"/><linearGradient id="lg4"><stop offset="0" stop-color="#fef48b"/><stop offset=".1646" stop-color="#fdf286"/><stop offset=".3352" stop-color="#fdee7a"/><stop offset=".5086" stop-color="#fce765"/><stop offset=".6839" stop-color="#fcde48"/><stop offset=".8589" stop-color="#fbd123"/><stop offset="1" stop-color="#fac600"/></linearGradient><linearGradient id="SVGID_00000171720790345832042330000007206088858304746402_" gradientTransform="matrix(1 0 0 -1 0 514)" gradientUnits="userSpaceOnUse" x1="5.847" x2="23.627" xlink:href="#lg4" y1="303.5" y2="285.72"/><linearGradient id="SVGID_00000033334985921585805330000009245229679582504624_" gradientTransform="matrix(1 0 0 -1 0 514)" gradientUnits="userSpaceOnUse" x1="314.842" x2="332.622" xlink:href="#lg4" y1="303.5" y2="285.72"/><linearGradient id="SVGID_00000008136844236837298790000003949233058548660664_" gradientTransform="matrix(1 0 0 -1 0 514)" gradientUnits="userSpaceOnUse" x1="160.344" x2="178.125" xlink:href="#lg4" y1="149.003" y2="131.222"/><linearGradient id="SVGID_00000049929360378877360670000007523016457246003337_" gradientTransform="matrix(1 0 0 -1 0 514)" gradientUnits="userSpaceOnUse" x1="160.344" x2="178.125" xlink:href="#lg4" y1="457.998" y2="440.217"/><linearGradient id="SVGID_00000179643468701232330550000011804453888660570034_" gradientTransform="matrix(1 0 0 -1 0 514)" gradientUnits="userSpaceOnUse" x1="26.543" x2="44.328" xlink:href="#lg4" y1="226.254" y2="208.469"/><linearGradient id="SVGID_00000148657256976534984070000018136901803139730592_" gradientTransform="matrix(1 0 0 -1 0 514)" gradientUnits="userSpaceOnUse" x1="294.141" x2="311.926" xlink:href="#lg4" y1="380.751" y2="362.966"/><linearGradient id="SVGID_00000042703982749394566680000004522111666052684219_" gradientTransform="matrix(1 0 0 -1 0 514)" gradientUnits="userSpaceOnUse" x1="237.591" x2="255.376" xlink:href="#lg4" y1="169.704" y2="151.919"/><linearGradient id="SVGID_00000143596338944227603770000009046944944761804934_" gradientTransform="matrix(1 0 0 -1 0 514)" gradientUnits="userSpaceOnUse" x1="83.093" x2="100.878" xlink:href="#lg4" y1="437.301" y2="419.516"/><linearGradient id="SVGID_00000011752277267703206290000010219404474850819722_" gradientTransform="matrix(1 0 0 -1 0 514)" gradientUnits="userSpaceOnUse" x1="294.141" x2="311.926" xlink:href="#lg4" y1="226.254" y2="208.469"/><linearGradient id="SVGID_00000065038443088182524330000010487190504571860609_" gradientTransform="matrix(1 0 0 -1 0 514)" gradientUnits="userSpaceOnUse" x1="26.543" x2="44.328" xlink:href="#lg4" y1="380.751" y2="362.966"/><linearGradient id="SVGID_00000159436100457281632610000012955766538413533831_" gradientTransform="matrix(1 0 0 -1 0 514)" gradientUnits="userSpaceOnUse" x1="83.093" x2="100.878" xlink:href="#lg4" y1="169.704" y2="151.919"/><linearGradient id="SVGID_00000060747652428400023740000003841463509316763577_" gradientTransform="matrix(1 0 0 -1 0 514)" gradientUnits="userSpaceOnUse" x1="237.591" x2="255.376" xlink:href="#lg4" y1="437.301" y2="419.516"/><linearGradient id="SVGID_00000064317720391671949130000008279465992652522917_" gradientTransform="matrix(1 0 0 -1 0 514)" gradientUnits="userSpaceOnUse" x1="94.332" x2="248.573" xlink:href="#lg4" y1="369.513" y2="215.272"/><linearGradient id="lg5"><stop offset="0" stop-color="#fe9738" stop-opacity="0"/><stop offset=".1207" stop-color="#fe9738" stop-opacity=".016"/><stop offset=".2459" stop-color="#fe9738" stop-opacity=".065"/><stop offset=".3731" stop-color="#fe9738" stop-opacity=".147"/><stop offset=".5018" stop-color="#fe9738" stop-opacity=".262"/><stop offset=".6317" stop-color="#fe9738" stop-opacity=".41"/><stop offset=".7625" stop-color="#fe9738" stop-opacity=".59"/><stop offset=".8916" stop-color="#fe9738" stop-opacity=".8"/><stop offset="1" stop-color="#fe9738"/></linearGradient><linearGradient id="SVGID_00000144298811353802492580000011904474176676059832_" gradientTransform="matrix(1 0 0 -1 0 514)" gradientUnits="userSpaceOnUse" x1="168.946" x2="168.946" xlink:href="#lg5" y1="290.42" y2="168.749"/><linearGradient id="SVGID_00000024700431620270814450000011698048066323878588_" gradientTransform="matrix(1 0 0 -1 0 514)" gradientUnits="userSpaceOnUse" x1="161.115" x2="294.89" xlink:href="#lg5" y1="297.772" y2="253.18"/><linearGradient id="SVGID_00000098190306484190854100000013751828751904919743_" gradientTransform="matrix(1 0 0 -1 0 514)" gradientUnits="userSpaceOnUse" x1="416.967" x2="359.462" xlink:href="#lg3" y1="188.09" y2="155.298"/><linearGradient id="SVGID_00000077301128731806296140000015484412047310818980_" gradientTransform="matrix(1 0 0 -1 0 514)" gradientUnits="userSpaceOnUse" x1="163.182" x2="219.359" xlink:href="#lg1" y1="238.863" y2="31.812"/><linearGradient id="SVGID_00000067915936333604531530000008187035514014145712_" gradientTransform="matrix(1 0 0 -1 0 514)" gradientUnits="userSpaceOnUse" x1="186.981" x2="159.892" xlink:href="#lg2" y1="161.631" y2="292.086"/><linearGradient id="SVGID_00000120525647731187598290000011912025304022705025_" gradientTransform="matrix(1 0 0 -1 0 514)" gradientUnits="userSpaceOnUse" x1="196.351" x2="196.351" xlink:href="#lg3" y1="90.119" y2="48.38"/><linearGradient id="SVGID_00000122688140819622508140000017227332712131984520_" gradientTransform="matrix(1 0 0 -1 0 514)" gradientUnits="userSpaceOnUse" x1="341.385" x2="401.531" xlink:href="#lg3" y1="119.57" y2="119.57"/><linearGradient id="SVGID_00000060026411927866116160000016866284563526151355_" gradientTransform="matrix(1 0 0 -1 0 514)" gradientUnits="userSpaceOnUse" x1="317.93" x2="366.884" xlink:href="#lg3" y1="208.591" y2="207.789"/><linearGradient id="SVGID_00000054231317353773593360000017448622033603170201_" gradientTransform="matrix(1 0 0 -1 0 514)" gradientUnits="userSpaceOnUse" x1="261.528" x2="295.234" xlink:href="#lg3" y1="233.016" y2="261.907"/><linearGradient id="SVGID_00000082362958552781405870000004386242876877798794_" gradientTransform="matrix(1 0 0 -1 0 514)" gradientUnits="userSpaceOnUse" x1="104.595" x2="58.851" xlink:href="#lg3" y1="166.292" y2="191.973"/><linearGradient id="SVGID_00000130645396736899519470000001641150873652442301_" gradientTransform="matrix(1 0 0 -1 0 514)" gradientUnits="userSpaceOnUse" x1="178.708" x2="222.58" y1="159.588" y2="192.402"><stop offset="0" stop-color="#fff" stop-opacity="0"/><stop offset=".1205" stop-color="#fff" stop-opacity=".016"/><stop offset=".2454" stop-color="#fff" stop-opacity=".065"/><stop offset=".3724" stop-color="#fff" stop-opacity=".147"/><stop offset=".5008" stop-color="#fff" stop-opacity=".261"/><stop offset=".6304" stop-color="#fff" stop-opacity=".408"/><stop offset=".761" stop-color="#fff" stop-opacity=".588"/><stop offset=".8898" stop-color="#fff" stop-opacity=".797"/><stop offset="1" stop-color="#fff"/></linearGradient><g><g><path d="m428.7 395.1c46 0 83.3-37.3 83.3-83.3 0-33.7-20.1-62.8-48.9-75.9 4.2-7.9 6.6-16.9 6.6-26.5 0-31-25.1-56.1-56.1-56.1-11.2 0-21.5 3.3-30.3 8.9-12.8-23-37.3-38.5-65.4-38.5-36.1 0-66.2 25.5-73.3 59.5-9.7-2.9-20-4.4-30.6-4.4-59.6 0-108 48.4-108 108.2 0 59.7 48.4 108.1 108.1 108.1z" fill="url(#SVGID_1_)"/><path d="m428.7 395.1c46 0 83.3-37.3 83.3-83.3 0-33.7-20.1-62.8-48.9-75.9 4.2-7.9 6.6-16.9 6.6-26.5 0-31-25.1-56.1-56.1-56.1-11.2 0-21.5 3.3-30.3 8.9-12.8-23-37.3-38.5-65.4-38.5-36.1 0-66.2 25.5-73.3 59.5-9.7-2.9-20-4.4-30.6-4.4-59.6 0-108 48.4-108 108.2 0 59.7 48.4 108.1 108.1 108.1z" fill="url(#SVGID_00000162314585023830161790000002622142747297246081_)"/><path d="m512 311.8c0 46-37.3 83.3-83.3 83.3h-214.6c-59.7 0-108.1-48.4-108.1-108.1 0-4.2.2-8.3.7-12.3h396.6c5.6 11.1 8.7 23.8 8.7 37.1z" fill="url(#SVGID_00000021108932515226321820000017196649857872931726_)"/><circle cx="428.7" cy="311.8" fill="url(#SVGID_00000022522346775011726590000002954945538777731769_)" r="83.3"/><path d="m469.7 209.4c0 9.6-2.4 18.6-6.7 26.5-10.5-4.8-22.1-7.4-34.4-7.4-21 0-40.1 7.7-54.8 20.5-10.1-10.2-16.4-24.2-16.4-39.6 0-31 25.1-56.1 56.1-56.1 31.1 0 56.2 25.2 56.2 56.1z" fill="url(#SVGID_00000154423514714517962900000016817419382617585827_)"/><path d="m357.5 209.4c0 15.3 6.1 29.1 16 39.2-13.7 15.2-33.5 24.7-55.6 24.7-41.3 0-74.8-33.5-74.8-74.8s33.5-74.8 74.8-74.8c28.1 0 52.6 15.5 65.4 38.5-15.5 10-25.8 27.4-25.8 47.2z" fill="url(#SVGID_00000066488334737043616300000016223744670527919253_)"/></g><g><path d="m28.8 219.1c0-7.9-6.4-14.3-14.3-14.3s-14.3 6.4-14.3 14.3 6.4 14.3 14.3 14.3 14.3-6.4 14.3-14.3z" fill="url(#SVGID_00000171720790345832042330000007206088858304746402_)"/><path d="m323.4 204.8c-7.9 0-14.3 6.4-14.3 14.3s6.4 14.3 14.3 14.3 14.3-6.4 14.3-14.3c.1-7.9-6.4-14.3-14.3-14.3z" fill="url(#SVGID_00000033334985921585805330000009245229679582504624_)"/><path d="m168.9 359.3c-7.9 0-14.3 6.4-14.3 14.3s6.4 14.3 14.3 14.3 14.3-6.4 14.3-14.3c.1-7.9-6.3-14.3-14.3-14.3z" fill="url(#SVGID_00000008136844236837298790000003949233058548660664_)"/><path d="m168.9 50.3c-7.9 0-14.3 6.4-14.3 14.3s6.4 14.3 14.3 14.3 14.3-6.4 14.3-14.3c.1-7.9-6.3-14.3-14.3-14.3z" fill="url(#SVGID_00000049929360378877360670000007523016457246003337_)"/><path d="m28 284c-6.8 4-9.2 12.7-5.2 19.6 4 6.8 12.7 9.2 19.6 5.2 6.8-4 9.2-12.7 5.2-19.6s-12.8-9.2-19.6-5.2z" fill="url(#SVGID_00000179643468701232330550000011804453888660570034_)"/><path d="m309.9 154.2c6.8-4 9.2-12.7 5.2-19.6-4-6.8-12.7-9.2-19.6-5.2s-9.2 12.7-5.2 19.6 12.8 9.2 19.6 5.2z" fill="url(#SVGID_00000148657256976534984070000018136901803139730592_)"/><circle cx="246.2" cy="352.9" fill="url(#SVGID_00000042703982749394566680000004522111666052684219_)" r="14.3"/><path d="m84.5 72.9c-6.8 4-9.2 12.7-5.2 19.6s12.7 9.2 19.6 5.2c6.8-4 9.2-12.7 5.2-19.6-4-6.8-12.7-9.1-19.6-5.2z" fill="url(#SVGID_00000143596338944227603770000009046944944761804934_)"/><path d="m309.9 284c-6.8-4-15.6-1.6-19.6 5.2s-1.6 15.6 5.2 19.6 15.6 1.6 19.6-5.2c4-6.9 1.6-15.7-5.2-19.6z" fill="url(#SVGID_00000011752277267703206290000010219404474850819722_)"/><path d="m42.3 129.5c-6.8-4-15.6-1.6-19.6 5.2s-1.6 15.6 5.2 19.6 15.6 1.6 19.6-5.2 1.6-15.7-5.2-19.6z" fill="url(#SVGID_00000065038443088182524330000010487190504571860609_)"/><path d="m98.9 340.5c-6.8-4-15.6-1.6-19.6 5.2s-1.6 15.6 5.2 19.6 15.6 1.6 19.6-5.2c3.9-6.9 1.6-15.6-5.2-19.6z" fill="url(#SVGID_00000159436100457281632610000012955766538413533831_)"/><path d="m253.4 72.9c-6.8-4-15.6-1.6-19.6 5.2s-1.6 15.6 5.2 19.6 15.6 1.6 19.6-5.2c3.9-6.9 1.6-15.6-5.2-19.6z" fill="url(#SVGID_00000060747652428400023740000003841463509316763577_)"/></g><g><circle cx="168.9" cy="219.1" fill="url(#SVGID_00000064317720391671949130000008279465992652522917_)" r="124.2"/><path d="m44.8 219.1c0 68.6 55.6 124.2 124.2 124.2s124.2-55.6 124.2-124.2c0-9.2-1-18.2-2.9-26.8h-242.6c-1.9 8.6-2.9 17.6-2.9 26.8z" fill="url(#SVGID_00000144298811353802492580000011904474176676059832_)"/><path d="m168.9 94.9c-10 0-19.7 1.2-29 3.4v241.4c9.3 2.2 19 3.4 29 3.4 68.6 0 124.2-55.6 124.2-124.2 0-68.4-55.6-124-124.2-124z" fill="url(#SVGID_00000024700431620270814450000011698048066323878588_)"/></g><path d="m314.6 310.7v84.4h114.2c9.6 0 18.8-1.6 27.4-4.6l-110.8-110.7z" fill="url(#SVGID_00000098190306484190854100000013751828751904919743_)"/><g><g><path d="m353.2 333.1c3.4-6.4 5.4-13.7 5.4-21.4 0-25-20.3-45.3-45.3-45.3-9 0-17.4 2.6-24.5 7.2-10.3-18.5-30.1-31.1-52.8-31.1-29.1 0-53.5 20.6-59.2 48.1-7.8-2.3-16.1-3.5-24.7-3.5-36.7 0-68.1 22.7-81.1 54.7-3.4-.6-6.9-.9-10.5-.9-33.4-.1-60.5 27-60.5 60.4s27.1 60.5 60.5 60.5h265c37.2 0 67.3-30.1 67.3-67.3-.1-27.3-16.3-50.8-39.6-61.4z" fill="url(#SVGID_00000077301128731806296140000015484412047310818980_)"/><path d="m353.2 333.1c3.4-6.4 5.4-13.7 5.4-21.4 0-25-20.3-45.3-45.3-45.3-9 0-17.4 2.6-24.5 7.2-10.3-18.5-30.1-31.1-52.8-31.1-29.1 0-53.5 20.6-59.2 48.1-7.8-2.3-16.1-3.5-24.7-3.5-36.7 0-68.1 22.7-81.1 54.7-3.4-.6-6.9-.9-10.5-.9-33.4-.1-60.5 27-60.5 60.4s27.1 60.5 60.5 60.5h265c37.2 0 67.3-30.1 67.3-67.3-.1-27.3-16.3-50.8-39.6-61.4z" fill="url(#SVGID_00000067915936333604531530000008187035514014145712_)"/><path d="m392.7 394.4c0 37.2-30.1 67.3-67.3 67.3h-265c-33.3 0-60.4-27.1-60.4-60.4 0-11.7 3.3-22.7 9.1-31.9h378.7c3.2 7.7 4.9 16.2 4.9 25z" fill="url(#SVGID_00000120525647731187598290000011912025304022705025_)"/><circle cx="325.4" cy="394.4" fill="url(#SVGID_00000122688140819622508140000017227332712131984520_)" r="67.3"/><path d="m358.6 311.7c0 7.7-1.9 15-5.4 21.4-8.5-3.8-17.9-6-27.8-6-16.9 0-32.4 6.3-44.3 16.6-8.2-8.2-13.2-19.5-13.2-32 0-25 20.3-45.3 45.3-45.3 25.1 0 45.4 20.3 45.4 45.3z" fill="url(#SVGID_00000060026411927866116160000016866284563526151355_)"/><path d="m267.9 311.7c0 12.3 4.9 23.5 12.9 31.7-11.1 12.3-27.1 20-44.9 20-33.4 0-60.5-27.1-60.5-60.5s27.1-60.4 60.5-60.4c22.7 0 42.5 12.5 52.8 31.1-12.5 8-20.8 22.1-20.8 38.1z" fill="url(#SVGID_00000054231317353773593360000017448622033603170201_)"/></g><path d="m239.4 374.4c0 48.2-39.1 87.4-87.4 87.4-18.8 0-36.3-6-50.5-16.1 11.9-11 19.4-26.8 19.4-44.4 0-29.8-21.5-54.5-49.9-59.5 12.9-32.2 44.3-54.8 81-54.8 48.3 0 87.4 39.1 87.4 87.4z" fill="url(#SVGID_00000082362958552781405870000004386242876877798794_)"/><path d="m239.4 374.4c0 48.2-39.1 87.4-87.4 87.4-18.8 0-36.3-6-50.5-16.1 11.9-11 19.4-26.8 19.4-44.4 0-29.8-21.5-54.5-49.9-59.5 12.9-32.2 44.3-54.8 81-54.8 48.3 0 87.4 39.1 87.4 87.4z" fill="url(#SVGID_00000130645396736899519470000001641150873652442301_)"/></g></g></svg>