<svg clip-rule="evenodd" fill-rule="evenodd" height="512" image-rendering="optimizeQuality" shape-rendering="geometricPrecision" text-rendering="geometricPrecision" viewBox="0 0 512 512" width="512" xmlns="http://www.w3.org/2000/svg" xmlns:xodm="http://www.corel.com/coreldraw/odm/2003"><g id="Layer_x0020_1"><path d="m187.84 417.3c-65.08 0-106.5-48.01-181.1-135.1-25.92-30.26 27.98-58.89 51.5-33.2 24.99 27.29 52.86 67.7 89.8 67.7h61c28 0 42.5-10.2 42.5-14.5 0-4.2-16.8-19.9-99.6-20.5-38.33-.14-29.58-40.73 5-57.3 61.6-29.8 148.7-45.2 208.3.8 9.51 7.34 42.27 5.11 60.09 4.61 1.5-7.69 8.79-14.11 16.71-14.11h52c9.6 0 18 7.9 18 17v125c0 9.9-8.1 18-18 18h-52c-8.16 0-15.35-6.76-16.75-15.08-3.32-.07-6.92-.16-10.65-.22-18.79-.5-47.2-1.3-55.8 2.7 0 0-.1 0-.1.1-80.6 35-129.9 54.1-170.9 54.1zm-115.8-272.6c-1.8 0-3.6-.7-4.9-2.1l-17-17c-6.5-6.51 3.4-16.41 9.9-9.9l17 17c4.39 4.38 1.22 12-5 12zm-13 30h-24c-9.23 0-9.23-14 0-14h24c9.24 0 9.24 14 0 14zm-4 48c-6.11 0-9.26-7.64-4.9-12l17-17c6.51-6.51 16.41 3.39 9.9 9.9l-17 17c-1.4 1.4-3.2 2.1-5 2.1zm47 19c-3.9 0-7-3.1-7-7v-23c0-9.23 14-9.23 14 0v23c0 3.9-3.1 7-7 7zm47-19c-1.9 0-3.7-.7-5.1-2.2l-16-17c-6.22-6.65 3.76-16.36 10.2-9.6l16 17c4.13 4.41 1.05 11.8-5.1 11.8zm20-48h-24c-9.23 0-9.23-14 0-14h24c9.23 0 9.24 14 0 14zm-36-30c-6.16 0-9.22-7.38-5.1-11.8l16-17c6.32-6.75 16.49 2.88 10.2 9.6l-16 17c-1.4 1.5-3.2 2.2-5.1 2.2zm-31-13c-3.9 0-7-3.1-7-7v-23c0-9.23 14-9.23 14 0v23c0 3.9-3.1 7-7 7zm0 65c-15.7 0-28-12.7-28-29 0-15.4 12.6-28 28-28s28 12.6 28 28c0 16.3-12.3 29-28 29zm0-43c-18.7 0-18.2 29 0 29 18.21 0 18.71-29 0-29zm366 163c-11.4 0-21-9.6-21-21s9.6-21 21-21c27.75 0 27.75 42 0 42zm0-28c-9.12 0-9.12 14 0 14 9.34 0 9.34-14 0-14zm-43-44.87c-23.19.71-54.59 3.13-68.4-7.53-54.5-42.1-135.8-27.2-193.7.8-14.8 7.1-23.5 20.8-22.1 26.6.8 3.7 8 4.1 11.1 4.1 73.3.5 113.6 12.8 113.5 34.5-.1 16.2-24.4 28.5-56.5 28.5h-61c-45.25 0-73.25-43.96-100.2-72.4-11.3-11.93-44.08-.96-30.5 14.7 131.8 155.4 147.5 159 335.9 77.2 13.74-6.13 44.37-4.1 71.9-3.66zm17-14.13c-1.1 0-3 1.9-3 3v125c0 2.3 2 4 3 4h52c2.1 0 4-1.9 4-4v-125c0-1-1.7-3-4-3z" fill="#1b74b9"/><path d="m151.94 267.8c73.3.5 113.6 12.8 113.5 34.5-.1 16.2-24.4 28.5-56.5 28.5h-61c-45.25 0-73.25-43.96-100.2-72.4-11.3-11.93-44.08-.96-30.5 14.7 131.8 155.4 147.5 159 335.9 77.2 13.74-6.13 44.37-4.1 71.9-3.66v-102.81c-23.19.71-54.59 3.13-68.4-7.53-54.5-42.1-135.8-27.2-193.7.8-14.8 7.1-23.5 20.8-22.1 26.6.8 3.7 8 4.1 11.1 4.1z" fill="#0cf"/><path d="m102.04 182.7c18.21 0 18.71-29 0-29-18.7 0-18.2 29 0 29z" fill="#f9f9f9"/><g fill="#0cf"><path d="m442.04 229.7c-1.1 0-3 1.9-3 3v125c0 2.3 2 4 3 4h52c2.1 0 4-1.9 4-4v-125c0-1-1.7-3-4-3zm5 66c0-11.4 9.6-21 21-21 27.75 0 27.75 42 0 42-11.4 0-21-9.6-21-21z"/><path d="m468.04 302.7c9.34 0 9.34-14 0-14-9.12 0-9.12 14 0 14z"/></g></g></svg>