<svg id="Capa_1" enable-background="new 0 0 510 510" height="512" viewBox="0 0 510 510" width="512" xmlns="http://www.w3.org/2000/svg" xmlns:xlink="http://www.w3.org/1999/xlink"><linearGradient id="lg1"><stop offset="0" stop-color="#deecf1"/><stop offset="1" stop-color="#d9b1ee"/></linearGradient><linearGradient id="SVGID_1_" gradientUnits="userSpaceOnUse" x1="17.282" x2="90.169" xlink:href="#lg1" y1="75.352" y2="205.458"/><linearGradient id="lg2"><stop offset="0" stop-color="#8379c1" stop-opacity="0"/><stop offset=".2831" stop-color="#8374be" stop-opacity=".283"/><stop offset=".5864" stop-color="#8268b5" stop-opacity=".586"/><stop offset=".898" stop-color="#8152a6" stop-opacity=".898"/><stop offset="1" stop-color="#814aa0"/></linearGradient><linearGradient id="SVGID_00000179629680066048353380000001515759332055911839_" gradientUnits="userSpaceOnUse" x1="53.274" x2="73.94" xlink:href="#lg2" y1="147.85" y2="160.85"/><linearGradient id="lg3"><stop offset="0" stop-color="#f9f5f3"/><stop offset="1" stop-color="#efe2dd"/></linearGradient><linearGradient id="SVGID_00000026125620494857853330000008129672161868529797_" gradientUnits="userSpaceOnUse" x1="215.546" x2="368.418" xlink:href="#lg3" y1="117.359" y2="415.553"/><linearGradient id="lg4"><stop offset="0" stop-color="#9e9797" stop-opacity="0"/><stop offset=".3104" stop-color="#968f8f" stop-opacity=".31"/><stop offset=".7849" stop-color="#827a7a" stop-opacity=".785"/><stop offset="1" stop-color="#766e6e"/></linearGradient><linearGradient id="SVGID_00000064315481263109762990000009080994747310943668_" gradientUnits="userSpaceOnUse" x1="264.711" x2="325.274" xlink:href="#lg4" y1="134.042" y2="98.636"/><linearGradient id="SVGID_00000127736204670919121990000013778725636037713547_" gradientUnits="userSpaceOnUse" x1="152.305" x2="120.972" xlink:href="#lg4" y1="168.301" y2="72.968"/><linearGradient id="SVGID_00000075872126269636103270000000470549103054857100_" gradientUnits="userSpaceOnUse" x1="342.985" x2="394.231" xlink:href="#lg4" y1="135.029" y2="111.736"/><linearGradient id="SVGID_00000150811913387567787850000017022757761554140819_" gradientUnits="userSpaceOnUse" x1="272.408" x2="272.408" xlink:href="#lg4" y1="256.858" y2="334.332"/><linearGradient id="SVGID_00000007404786503866727080000009473105999546152891_" gradientUnits="userSpaceOnUse" x1="311.885" x2="436.054" xlink:href="#lg3" y1="361.372" y2="485.541"/><linearGradient id="SVGID_00000129892214143118677740000015174676023545801887_" gradientUnits="userSpaceOnUse" x1="358.289" x2="358.289" xlink:href="#lg4" y1="411.982" y2="480.512"/><linearGradient id="SVGID_00000042725474934727355380000009988491148862590110_" gradientUnits="userSpaceOnUse" x1="409.973" x2="372.223" xlink:href="#lg4" y1="417.622" y2="363.122"/><linearGradient id="SVGID_00000119797110658480793540000009492515484104120977_" gradientUnits="userSpaceOnUse" x1="301.078" x2="273.328" xlink:href="#lg4" y1="465.16" y2="381.91"/><linearGradient id="SVGID_00000127739107424282368530000016418228407934054841_" gradientUnits="userSpaceOnUse" x1="370.169" x2="358.836" y1="354.33" y2="446.997"><stop offset="0" stop-color="#9be69d"/><stop offset="1" stop-color="#0bb494"/></linearGradient><linearGradient id="SVGID_00000008135380699729069740000002008155767594108042_" gradientTransform="matrix(.5 .866 -.674 .389 372.686 -648.524)" gradientUnits="userSpaceOnUse" x1="903.736" x2="852.236" y1="668.436" y2="692.436"><stop offset="0" stop-color="#01525a" stop-opacity="0"/><stop offset="1" stop-color="#01525a"/></linearGradient><linearGradient id="SVGID_00000090265917999228778750000016187816497915445896_" gradientUnits="userSpaceOnUse" x1="422.839" x2="447.358" xlink:href="#lg3" y1="310.975" y2="335.493"/><linearGradient id="SVGID_00000119113309522585767330000015824906310291801016_" gradientUnits="userSpaceOnUse" x1="439.246" x2="439.246" xlink:href="#lg4" y1="327.768" y2="363.632"/><linearGradient id="SVGID_00000013187455972619038850000002571923309458369718_" gradientTransform="matrix(.707 -.707 .707 .707 2093.284 -602.189)" gradientUnits="userSpaceOnUse" x1="-1826.887" x2="-1826.887" xlink:href="#lg4" y1="-511.89" y2="-474.139"/><linearGradient id="SVGID_00000034787093407029470950000006360565764658588093_" gradientUnits="userSpaceOnUse" x1="106.103" x2="123.486" xlink:href="#lg1" y1="369.478" y2="418.213"/><linearGradient id="SVGID_00000023257908773224601650000009873089167254137247_" gradientUnits="userSpaceOnUse" x1="101.529" x2="134.029" xlink:href="#lg2" y1="406.952" y2="390.952"/><linearGradient id="SVGID_00000124135385461784127560000015563845511440269704_" gradientUnits="userSpaceOnUse" x1="131.191" x2="177.857" y1="276.937" y2="484.27"><stop offset="0" stop-color="#deecf1"/><stop offset="1" stop-color="#8ebac5"/></linearGradient><linearGradient id="lg5"><stop offset="0" stop-color="#678d98" stop-opacity="0"/><stop offset=".2265" stop-color="#638892" stop-opacity=".227"/><stop offset=".5216" stop-color="#597b82" stop-opacity=".522"/><stop offset=".8533" stop-color="#476567" stop-opacity=".853"/><stop offset="1" stop-color="#3e5959"/></linearGradient><linearGradient id="SVGID_00000039136083902475958450000015236729763970422945_" gradientTransform="matrix(-1 0 0 -1 1011.529 836.9)" gradientUnits="userSpaceOnUse" x1="852.383" x2="870.383" xlink:href="#lg5" y1="448.507" y2="485.007"/><linearGradient id="SVGID_00000164503740976650732790000017904077332114869647_" gradientTransform="matrix(-1 0 0 -1 1011.529 836.9)" gradientUnits="userSpaceOnUse" x1="889.117" x2="889.117" xlink:href="#lg5" y1="521.481" y2="482.481"/><linearGradient id="SVGID_00000007398364040261344870000008058101798520649888_" gradientUnits="userSpaceOnUse" x1="44.794" x2="98.294" xlink:href="#lg1" y1="91.601" y2="187.101"/><linearGradient id="SVGID_00000134228140829566677780000009264995142012757125_" gradientUnits="userSpaceOnUse" x1="15.044" x2="68.544" xlink:href="#lg1" y1="108.267" y2="203.767"/><linearGradient id="SVGID_00000137092137003636551990000015748815503203461812_" gradientUnits="userSpaceOnUse" x1="125.5" x2="66.481" y1="122.013" y2="122.013"><stop offset="0" stop-color="#deecf1" stop-opacity="0"/><stop offset="1" stop-color="#d9b1ee"/></linearGradient><linearGradient id="SVGID_00000006693884587364226780000013194981930837501372_" gradientUnits="userSpaceOnUse" x1="102.498" x2="155.998" xlink:href="#lg1" y1="59.274" y2="154.774"/><linearGradient id="SVGID_00000167397682539921019550000004513521820653432961_" gradientUnits="userSpaceOnUse" x1="158.334" x2="107.333" xlink:href="#lg2" y1="152.357" y2="152.357"/><linearGradient id="SVGID_00000136370047254819168980000013256702395128240287_" gradientUnits="userSpaceOnUse" x1="83.393" x2="111.393" xlink:href="#lg1" y1="382.895" y2="461.395"/><linearGradient id="SVGID_00000007412904843902519920000011358428338541173429_" gradientUnits="userSpaceOnUse" x1="55.385" x2="83.385" xlink:href="#lg1" y1="386.465" y2="464.965"/><g><path d="m76.822 144.758h-32.822c-4.187 0-7.581 3.394-7.581 7.581s3.394 7.581 7.581 7.581h32.822c4.187 0 7.581-3.394 7.581-7.581s-3.394-7.581-7.581-7.581z" fill="url(#SVGID_1_)"/><path d="m76.822 144.758h-32.822c-4.187 0-7.581 3.394-7.581 7.581s3.394 7.581 7.581 7.581h32.822c4.187 0 7.581-3.394 7.581-7.581s-3.394-7.581-7.581-7.581z" fill="url(#SVGID_00000179629680066048353380000001515759332055911839_)"/><g><path d="m411.425 129.699c-9.501 0-18.686 1.348-27.379 3.856-5.592-21.894-25.445-38.082-49.081-38.082-6.656 0-13.007 1.297-18.829 3.63-17.545-27.212-48.12-45.232-82.906-45.232-40.966 0-76.085 24.994-90.965 60.561h-58.869c-4.187 0-7.581 3.394-7.581 7.581s3.394 7.582 7.581 7.582h53.929c-.015.063-.033.124-.048.187-1.29-.05-2.584-.083-3.886-.083-54.442 0-98.576 44.134-98.576 98.576s44.134 98.576 98.576 98.576h278.034s98.575-44.135 98.575-98.577-44.133-98.575-98.575-98.575z" fill="url(#SVGID_00000026125620494857853330000008129672161868529797_)"/><path d="m322.116 195.13c-15.914 33.067-49.736 55.895-88.888 55.895-54.441 0-98.578-44.136-98.578-98.578 0-54.441 44.136-98.577 98.578-98.577 34.782 0 65.352 18.01 82.897 45.226-18.644 7.473-31.819 25.716-31.819 47.034 0 23.536 16.054 43.316 37.81 49z" fill="url(#SVGID_00000064315481263109762990000009080994747310943668_)"/><path d="m282 129.595h-144.675c-.015.063-.033.124-.048.187-1.29-.05-2.584-.083-3.886-.083-54.442 0-98.576 44.134-98.576 98.576s44.134 98.576 98.576 98.576h148.609z" fill="url(#SVGID_00000127736204670919121990000013778725636037713547_)"/><path d="m384.048 133.551c-30.16 8.693-54.376 31.409-65.147 60.628-20.098-6.718-34.595-25.697-34.595-48.05 0-27.98 22.688-50.658 50.658-50.658 23.639.001 43.494 16.185 49.084 38.08z" fill="url(#SVGID_00000075872126269636103270000000470549103054857100_)"/><path d="m34.815 228.274c0 54.442 44.134 98.576 98.576 98.576h278.034s98.575-44.134 98.575-98.576c0-11.227-1.881-22.014-5.338-32.068h-464.509c-3.457 10.055-5.338 20.841-5.338 32.068z" fill="url(#SVGID_00000150811913387567787850000017022757761554140819_)"/></g><g><path d="m437.974 363.443c-3.478-.097-6.87.193-10.14.829-7.585 1.475-15.06-3.248-17.244-10.662-8.145-27.648-33.698-47.829-63.973-47.829-25.826 0-48.21 14.691-59.289 36.17-2.759 5.35-7.699 9.128-13.548 10.542-24.306 5.875-41.989 28.731-39.8 55.312 2.11 25.613 23.037 46.135 48.674 47.785 17.832 1.147 132.603.111 154.007.111 26.435 0 47.675-22.249 46.03-49.05-1.449-23.606-21.085-42.549-44.717-43.208z" fill="url(#SVGID_00000007404786503866727080000009473105999546152891_)"/><path d="m482.691 406.651c-1.056-17.205-11.777-31.923-26.66-38.9h-208.237c-9.605 10.337-15.09 24.559-13.813 40.054 2.11 25.613 23.037 46.135 48.674 47.785 17.832 1.147 132.603.111 154.007.111 26.434.001 47.674-22.249 46.029-49.05z" fill="url(#SVGID_00000129892214143118677740000015174676023545801887_)"/><path d="m437.974 363.443c-3.478-.097-6.87.193-10.14.829-5.326 1.036-10.589-.992-14.013-4.854l-90.321 60.851 35.804 35.803c33.275-.117 66.76-.371 77.358-.371 26.435 0 47.675-22.249 46.03-49.05-1.45-23.606-21.086-42.549-44.718-43.208z" fill="url(#SVGID_00000042725474934727355380000009988491148862590110_)"/></g><path d="m299 407.519h-65.035c.007.096.008.19.016.286 2.11 25.614 23.037 46.135 48.674 47.785 7.963.512 35.257.589 64.934.518z" fill="url(#SVGID_00000119797110658480793540000009492515484104120977_)"/><g><path d="m416.508 374.323c2.555-9.962-4.366-21.948-14.27-24.717-17.198-4.807-36.52-2.852-53.533 6.971-17.154 9.904-28.555 25.839-32.912 43.307-2.403 9.635 4.406 21.428 13.951 24.165 17.305 4.96 36.807 3.054 53.961-6.849 17.013-9.824 28.368-25.579 32.803-42.877z" fill="url(#SVGID_00000127739107424282368530000016418228407934054841_)"/><path d="m329.745 424.048c17.305 4.96 36.807 3.054 53.961-6.849 17.012-9.822 28.367-25.577 32.803-42.875 1.277-4.981.186-10.468-2.463-15.056l-95.757 55.285c2.594 4.494 6.683 8.127 11.456 9.495z" fill="url(#SVGID_00000008135380699729069740000002008155767594108042_)"/></g><g><circle cx="439.246" cy="327.382" fill="url(#SVGID_00000090265917999228778750000016187816497915445896_)" r="30.487"/><path d="m408.759 327.382c0 16.837 13.65 30.487 30.487 30.487 16.838 0 30.487-13.65 30.487-30.487 0-3.647-.642-7.143-1.817-10.384h-57.341c-1.173 3.241-1.816 6.737-1.816 10.384z" fill="url(#SVGID_00000119113309522585767330000015824906310291801016_)"/><path d="m417.689 348.94c11.906 11.906 31.209 11.906 43.115 0s11.906-31.209 0-43.115c-2.579-2.579-5.505-4.596-8.627-6.058l-40.546 40.546c1.461 3.122 3.479 6.048 6.058 8.627z" fill="url(#SVGID_00000013187455972619038850000002571923309458369718_)"/></g><path d="m144 391.109v15.16h-49.6c-4.19 0-7.59-3.39-7.59-7.58s3.4-7.58 7.59-7.58z" fill="url(#SVGID_00000034787093407029470950000006360565764658588093_)"/><path d="m144 391.109v15.16h-49.6c-4.19 0-7.59-3.39-7.59-7.58s3.4-7.58 7.59-7.58z" fill="url(#SVGID_00000023257908773224601650000009873089167254137247_)"/><g><path d="m148.797 269.916c29.753 0 53.958 24.205 53.958 53.958s-24.205 53.958-53.958 53.958h-8.025c14.668 16.084 35.782 26.19 59.215 26.19h90.393c6.903 0 12.5 5.597 12.5 12.5s-5.597 12.5-12.5 12.5h-90.393c-38.668 0-72.53-20.984-90.796-52.16-39.663-4.165-76.421-21.633-105.015-50.227l-.506-.505c-4.887-4.877-4.895-12.792-.018-17.678s12.793-4.892 17.678-.018l.515.514c21.171 21.171 47.556 35.225 76.255 40.962-2.13-8.331-3.262-17.052-3.262-26.037 0-29.752 24.206-53.957 53.959-53.957zm0 82.916c15.968 0 28.958-12.99 28.958-28.958s-12.99-28.958-28.958-28.958-28.959 12.99-28.959 28.958c0 10.199 1.914 19.957 5.403 28.938.843.014 1.688.021 2.533.021h21.023z" fill="url(#SVGID_00000124135385461784127560000015563845511440269704_)"/><path d="m199.987 429.022h11.135v-25h-11.135c-23.433 0-44.547-10.106-59.215-26.19-18.784 0-31.581-.97-31.581-.97 18.265 31.176 52.128 52.16 90.796 52.16z" fill="url(#SVGID_00000039136083902475958450000015236729763970422945_)"/><path d="m119.838 323.874c0-15.968 12.991-28.958 28.959-28.958.399 0 .794.014 1.188.03v-25c-.396-.009-.79-.03-1.188-.03-29.753 0-53.959 24.205-53.959 53.958 0 8.985 1.132 17.706 3.262 26.037 0 0 8.897 2.9 27.142 2.9-3.49-8.98-5.404-18.738-5.404-28.937z" fill="url(#SVGID_00000164503740976650732790000017904077332114869647_)"/></g><g><path d="m29.679 99.269h30.326c4.187 0 7.581-3.394 7.581-7.581s-3.394-7.582-7.581-7.582h-30.326c-4.187 0-7.581 3.394-7.581 7.582 0 4.187 3.394 7.581 7.581 7.581z" fill="url(#SVGID_00000007398364040261344870000008058101798520649888_)"/><path d="m37.907 114.432h-30.326c-4.187 0-7.581 3.394-7.581 7.581s3.394 7.582 7.581 7.582h30.326c4.187 0 7.581-3.394 7.581-7.582.001-4.187-3.394-7.581-7.581-7.581z" fill="url(#SVGID_00000134228140829566677780000009264995142012757125_)"/><path d="m188.733 114.432h-105.337c-4.187 0-7.581 3.394-7.581 7.581s3.394 7.582 7.581 7.582h105.337c4.187 0 7.581-3.394 7.581-7.582.001-4.187-3.394-7.581-7.581-7.581z" fill="url(#SVGID_00000137092137003636551990000015748815503203461812_)"/><path d="m105.494 99.269h30.326c4.187 0 7.581-3.394 7.581-7.581s-3.394-7.582-7.581-7.582h-30.326c-4.187 0-7.581 3.394-7.581 7.582-.001 4.187 3.394 7.581 7.581 7.581z" fill="url(#SVGID_00000006693884587364226780000013194981930837501372_)"/><path d="m156.441 144.775h-34.474c-4.026.181-7.238 3.493-7.238 7.564 0 4.187 3.394 7.581 7.581 7.581h10.478v.017h23.652c4.187 0 7.581-3.394 7.581-7.582.001-4.186-3.393-7.58-7.58-7.58z" fill="url(#SVGID_00000167397682539921019550000004513521820653432961_)"/></g><g><path d="m115.005 421.432h-30.326c-4.187 0-7.581 3.394-7.581 7.581s3.394 7.582 7.581 7.582h30.326c4.187 0 7.581-3.394 7.581-7.582.001-4.187-3.394-7.581-7.581-7.581z" fill="url(#SVGID_00000136370047254819168980000013256702395128240287_)"/><path d="m82.489 398.688c0-4.187-3.394-7.582-7.581-7.582h-30.327c-4.187 0-7.581 3.394-7.581 7.582 0 4.187 3.394 7.581 7.581 7.581h30.326c4.187 0 7.582-3.394 7.582-7.581z" fill="url(#SVGID_00000007412904843902519920000011358428338541173429_)"/></g></g></svg>